<svg class="snap" xmlns="http://www.w3.org/2000/svg" width="400" height="300" viewBox="0 0 400 300">
  <g fill="none">
    <path stroke="#fff" class="path" d="M47.02 155.647s-2.777 75.395 59.567 70.688c62.344-4.707 26.722-71.79 48.222-112.082 21.5-40.293 82.544-62.016 130.732-36.586 48.187 25.43 103.79 130.082 51.894 139.375-51.894 9.293-135.7-18.98-111.976 25.5 23.723 44.48 118.876 54.238 118.876 19.015 0-35.222-38.328-136.285-101.602-121.097-63.273 15.187-80.547 107.785-111.718 107.785-31.172 0-49.137-126.285 9.12-168.8C198.394 36.93 61.85-5.59 47.504 30.737c-14.348 36.328-.485 124.91-.485 124.91z"/>
    <path class="star" fill="#fff" d="M361 43l-7.053 3.708 1.347-7.854-5.707-5.562 7.886-1.146L361 25l3.527 7.146 7.886 1.146-5.707 5.562 1.347 7.854z"/>
  </g>
</svg>